<?xml version="1.0" standalone="no"?>
<!DOCTYPE svg PUBLIC "-//W3C//DTD SVG 20010904//EN"
 "http://www.w3.org/TR/2001/REC-SVG-20010904/DTD/svg10.dtd">
<svg version="1.0" xmlns="http://www.w3.org/2000/svg"
 width="225.000000pt" height="225.000000pt" viewBox="0 0 225.000000 225.000000"
 preserveAspectRatio="xMidYMid meet">
<metadata>
Created by potrace 1.11, written by Peter Selinger 2001-2013
</metadata>
<g transform="translate(0.000000,225.000000) scale(0.100000,-0.100000)"
fill="#000000" stroke="none">
<path d="M0 1125 l0 -1125 1125 0 1125 0 0 1125 0 1125 -1125 0 -1125 0 0
-1125z m737 943 c80 -48 150 -163 249 -408 l42 -105 129 -6 c70 -3 129 -6 129
-5 1 1 4 28 8 61 3 33 8 71 11 85 4 16 -3 8 -19 -20 -33 -59 -32 -51 5 45 43
113 117 250 163 302 50 57 110 89 142 75 31 -15 78 -86 134 -205 96 -206 154
-388 208 -652 44 -211 52 -286 50 -448 l-1 -142 -8 162 c-9 195 -44 407 -98
596 -39 135 -60 188 -47 117 18 -102 18 -110 5 -127 -7 -10 -9 -15 -4 -10 11
9 46 -79 38 -99 -3 -8 -1 -14 5 -14 6 0 20 -31 32 -69 69 -224 67 -556 -5
-705 -26 -55 -27 -48 -5 64 22 116 6 504 -26 612 -3 9 -6 25 -8 35 -10 48 -39
101 -62 112 -32 14 -29 15 -60 -14 -24 -23 -25 -30 -1 -26 5 1 6 -3 2 -9 -8
-13 15 -90 33 -112 8 -9 12 -21 9 -25 -3 -5 -1 -15 5 -23 8 -12 9 -11 4 4 -6
16 -4 17 9 6 16 -13 21 -45 5 -35 -11 6 -5 -54 6 -64 4 -3 5 2 1 11 -3 9 0 19
7 21 9 4 14 -3 14 -19 0 -13 -4 -24 -9 -24 -5 0 -9 -15 -9 -32 0 -50 -13 -22
-66 142 l-46 146 -87 -15 c-64 -11 -185 -15 -481 -15 -355 -1 -474 5 -583 27
-7 2 -76 -191 -77 -215 0 -23 23 -2 41 35 16 35 18 37 14 12 -17 -85 -26 -103
-62 -125 -31 -18 -34 -23 -22 -35 19 -19 114 -43 201 -49 l73 -6 -60 14 c-81
19 -149 48 -153 65 -2 10 4 12 20 7 154 -44 278 -56 588 -56 261 0 429 13 537
40 42 11 78 20 80 20 2 0 -4 -9 -15 -20 -23 -24 -133 -59 -192 -61 -25 0 -56
-5 -70 -10 -36 -12 129 0 216 16 39 7 87 20 108 29 35 15 36 14 26 -4 -6 -11
-14 -19 -18 -19 -20 3 -32 -3 -32 -16 0 -8 -4 -15 -10 -15 -5 0 -10 -6 -10
-12 0 -7 -13 -27 -30 -44 -16 -18 -32 -43 -35 -56 -8 -32 -62 -88 -84 -88 -19
0 -71 -46 -71 -63 0 -17 -42 -47 -80 -57 -21 -6 -43 -17 -50 -25 -7 -8 -25
-15 -41 -15 -15 0 -31 -4 -34 -10 -3 -5 -31 -10 -61 -10 -46 0 -54 -3 -54 -19
0 -17 9 -19 103 -20 56 0 111 -1 122 -2 11 0 54 7 95 16 41 9 96 18 121 19 39
2 45 -1 42 -15 -3 -10 -18 -23 -34 -29 -16 -7 -29 -16 -29 -20 0 -4 -17 -15
-37 -24 l-38 -16 35 6 c19 3 39 7 44 8 19 3 15 -21 -6 -32 -76 -39 -211 -72
-329 -81 -115 -9 -333 0 -347 14 -3 3 47 5 110 5 128 0 208 8 208 21 0 5 -45
9 -99 9 -86 0 -198 16 -251 36 -12 5 -12 7 3 13 17 6 16 8 -7 19 -22 10 -26 9
-26 -3 0 -19 -63 -19 -105 0 l-30 13 30 3 c17 1 89 2 160 3 93 1 148 7 193 20
63 19 82 42 40 50 -21 4 -211 31 -303 42 -22 3 -45 7 -52 9 -6 2 -13 -1 -15
-6 -2 -6 -15 -5 -36 2 -38 13 -43 10 -46 -25 0 -14 -7 -28 -13 -31 -18 -6 -16
-35 2 -35 8 0 15 -7 15 -15 0 -17 -35 -21 -45 -5 -3 5 -25 18 -48 28 -23 10
-48 26 -56 35 -7 10 -19 17 -27 17 -17 0 -84 83 -84 105 0 15 6 17 50 11 46
-6 50 -5 50 14 0 15 7 20 28 20 15 0 33 -5 40 -12 7 -7 12 -8 12 -2 0 5 -9 15
-21 22 -11 7 -18 19 -16 27 6 14 -22 45 -41 45 -7 0 -12 11 -12 25 0 13 -8 28
-17 34 -10 5 -25 34 -33 63 -12 41 -21 53 -35 53 -11 0 -20 5 -20 10 0 6 -3
15 -7 21 -4 6 12 71 36 145 24 74 46 146 50 161 6 26 5 27 -19 18 -14 -5 -25
-7 -25 -4 0 2 -9 0 -20 -6 -14 -7 -20 -7 -20 0 0 38 -38 -27 -59 -100 -33
-117 -39 -450 -10 -590 6 -30 15 -73 19 -94 l8 -40 -18 24 c-24 32 -70 184
-85 284 l-13 81 -4 -75 c-3 -63 -4 -56 -6 40 -1 63 5 158 13 210 19 125 42
255 55 305 5 22 12 63 16 90 19 164 191 593 274 683 33 37 47 37 107 0z m98
-864 c130 -11 545 -4 717 13 54 5 58 4 67 -18 8 -19 10 -20 10 -5 1 29 27 2
42 -42 6 -20 16 -42 21 -49 19 -24 13 -81 -10 -106 -30 -31 -93 -45 -277 -58
-165 -12 -588 -4 -695 13 -36 5 -75 11 -88 13 -31 3 -62 34 -62 60 0 34 48
177 62 187 7 5 40 6 73 3 33 -2 96 -8 140 -11z m923 -189 c5 -42 -12 -20 -27
35 -21 79 -21 86 1 40 12 -25 24 -58 26 -75z"/>
<path d="M1545 1918 c-30 -35 -101 -173 -151 -293 -19 -44 -34 -80 -34 -80 0
0 24 -1 53 -3 111 -7 318 -64 384 -108 14 -8 26 -14 28 -12 3 2 -12 51 -31
108 -61 177 -173 400 -209 414 -8 3 -25 -8 -40 -26z"/>
<path d="M623 1883 c-58 -91 -162 -332 -188 -435 l-7 -28 73 34 c109 50 236
82 347 88 41 2 43 3 37 27 -12 45 -110 255 -148 314 -48 75 -66 75 -114 0z"/>
<path d="M930 1729 c0 -3 11 -38 25 -78 14 -40 23 -81 20 -92 -5 -15 -1 -19
19 -19 l26 0 -20 50 c-21 54 -69 149 -70 139z"/>
<path d="M416 1513 c-55 -169 -115 -444 -65 -303 10 30 33 88 51 128 23 53 28
76 20 84 -8 8 -7 20 3 44 7 18 11 35 8 38 -3 2 -2 10 3 17 7 12 15 69 9 69 -2
0 -15 -35 -29 -77z"/>
<path d="M322 1130 c0 -14 2 -19 5 -12 2 6 2 18 0 25 -3 6 -5 1 -5 -13z"/>
<path d="M305 1040 c-4 -34 -5 -63 -2 -66 2 -3 7 23 11 57 4 33 5 63 3 66 -3
2 -8 -23 -12 -57z"/>
<path d="M293 900 c0 -30 2 -43 4 -27 2 15 2 39 0 55 -2 15 -4 2 -4 -28z"/>
<path d="M1288 323 c6 -2 18 -2 25 0 6 3 1 5 -13 5 -14 0 -19 -2 -12 -5z"/>
</g>
</svg>
